<svg xmlns="http://www.w3.org/2000/svg" font-family="ui-monospace, 'Cascadia Code', monospace" viewBox="0 0 860 400"><rect width="860" height="400" fill="#F8FAFC" rx="0"/><rect width="150" height="200" x="20" y="100" fill="#fff" stroke="#CBD5E1" stroke-width="1.5" rx="10"/><rect width="150" height="32" x="20" y="100" fill="#1E3A5F" rx="10"/><rect width="150" height="12" x="20" y="120" fill="#1E3A5F"/><text x="95" y="122" fill="#fff" font-size="13" font-weight="700" text-anchor="middle">ESP32</text><rect width="126" height="24" x="32" y="144" fill="#EFF6FF" stroke="#93C5FD" stroke-width="1" rx="5"/><text x="95" y="161" fill="#1D4ED8" font-size="10" text-anchor="middle">DS18B20 · MPX4250</text><rect width="126" height="24" x="32" y="174" fill="#F0FDF4" stroke="#86EFAC" stroke-width="1" rx="5"/><text x="95" y="191" fill="#15803D" font-size="10" text-anchor="middle">Hall RPM · Hall Speed</text><rect width="126" height="24" x="32" y="204" fill="#FFF7ED" stroke="#FDC086" stroke-width="1" rx="5"/><text x="95" y="221" fill="#C2410C" font-size="10" text-anchor="middle">Tankgeber · ADC</text><rect width="126" height="24" x="32" y="234" fill="#F5F3FF" stroke="#C4B5FD" stroke-width="1" rx="5"/><text x="95" y="251" fill="#6D28D9" font-size="10" text-anchor="middle">Spannungsteiler 12V</text><rect width="126" height="24" x="32" y="264" fill="#FFF1F2" stroke="#FCA5A5" stroke-width="1" rx="5"/><text x="95" y="281" fill="#B91C1C" font-size="10" text-anchor="middle">BLE TPMS · GPIO</text><line x1="170" x2="330" y1="160" y2="160" stroke="#22C55E" stroke-width="2.5"/><polygon fill="#22C55E" points="324 155 336 160 324 165"/><rect width="130" height="38" x="185" y="140" fill="#F0FDF4" stroke="#22C55E" stroke-width="1.5" rx="6"/><text x="250" y="155" fill="#15803D" font-size="10" font-weight="700" text-anchor="middle">A WiFi + HTTP</text><text x="250" y="170" fill="#6B7280" font-size="9" text-anchor="middle">POST :4841/sensor</text><line x1="170" x2="230" y1="200" y2="200" stroke="#F59E0B" stroke-dasharray="5 3" stroke-width="2"/><rect width="100" height="30" x="230" y="185" fill="#FFFBEB" stroke="#F59E0B" stroke-width="1.5" rx="6"/><text x="280" y="205" fill="#B45309" font-size="10" font-weight="600" text-anchor="middle">Mosquitto</text><line x1="330" x2="390" y1="200" y2="200" stroke="#F59E0B" stroke-dasharray="5 3" stroke-width="2"/><rect width="80" height="30" x="390" y="185" fill="#FFFBEB" stroke="#F59E0B" stroke-width="1.5" rx="6"/><text x="430" y="205" fill="#B45309" font-size="10" font-weight="600" text-anchor="middle">Bridge</text><line x1="470" x2="490" y1="200" y2="200" stroke="#F59E0B" stroke-dasharray="5 3" stroke-width="2"/><rect width="126" height="20" x="200" y="222" fill="none" rx="4"/><text x="263" y="236" fill="#B45309" font-size="9" text-anchor="middle">B WiFi + MQTT</text><line x1="170" x2="230" y1="260" y2="260" stroke="#94A3B8" stroke-dasharray="4 3" stroke-width="2"/><rect width="130" height="30" x="230" y="245" fill="#F8FAFC" stroke="#94A3B8" stroke-width="1.5" rx="6"/><text x="295" y="265" fill="#475569" font-size="10" font-weight="600" text-anchor="middle">serial-bridge.py</text><line x1="360" x2="490" y1="260" y2="260" stroke="#94A3B8" stroke-dasharray="4 3" stroke-width="2"/><text x="295" y="290" fill="#94A3B8" font-size="9" text-anchor="middle">C Serial / USB</text><line x1="490" x2="490" y1="160" y2="200" stroke="#6B7280" stroke-width="1.5"/><rect width="170" height="180" x="490" y="120" fill="#1E3A5F" stroke="#2563EB" stroke-width="2" rx="10"/><text x="575" y="147" fill="#fff" font-size="12" font-weight="700" text-anchor="middle">OPC-UA Server</text><text x="575" y="163" fill="#93C5FD" font-size="9.5" text-anchor="middle">:4840 / :4841</text><rect width="144" height="30" x="503" y="172" fill="#0F2744" stroke="#3B82F6" stroke-width="1" rx="5"/><text x="575" y="192" fill="#60A5FA" font-size="10" font-weight="600" text-anchor="middle">node.write_value()</text><rect width="144" height="48" x="503" y="210" fill="#0F2744" stroke="#3B82F6" stroke-width="1" rx="5"/><text x="575" y="228" fill="#93C5FD" font-size="9" text-anchor="middle">Speed · RPM · Temp</text><text x="575" y="243" fill="#93C5FD" font-size="9" text-anchor="middle">Fuel · Oil · Batt</text><text x="575" y="258" fill="#93C5FD" font-size="9" text-anchor="middle">TirePressure · Faults</text><rect width="144" height="24" x="503" y="266" fill="#0F2744" stroke="#22C55E" stroke-width="1" rx="5"/><text x="575" y="283" fill="#4ADE80" font-size="9.5" font-weight="600" text-anchor="middle">asyncua</text><line x1="490" x2="490" y1="260" y2="220" stroke="#6B7280" stroke-width="1.5"/><polygon fill="#6B7280" points="486 224 490 212 494 224"/><line x1="660" x2="700" y1="210" y2="210" stroke="#6B7280" stroke-width="2"/><polygon fill="#6B7280" points="696 205 708 210 696 215"/><rect width="140" height="56" x="700" y="182" fill="#fff" stroke="#CBD5E1" stroke-width="1.5" rx="8"/><text x="770" y="202" fill="#111" font-size="11" font-weight="600" text-anchor="middle">OPC-UA Exporter</text><text x="770" y="218" fill="#6B7280" font-size="9.5" text-anchor="middle">Prometheus Gauges</text><text x="770" y="232" fill="#6B7280" font-size="9.5" text-anchor="middle">:9686/metrics</text><line x1="770" x2="770" y1="238" y2="280" stroke="#6B7280" stroke-width="1.5"/><polygon fill="#6B7280" points="765 276 770 288 775 276"/><rect width="140" height="44" x="700" y="288" fill="#fff" stroke="#CBD5E1" stroke-width="1.5" rx="8"/><text x="770" y="308" fill="#111" font-size="11" font-weight="600" text-anchor="middle">Prometheus</text><text x="770" y="323" fill="#6B7280" font-size="9.5" text-anchor="middle">:9090 scrape 15 s</text><line x1="770" x2="770" y1="332" y2="350" stroke="#6B7280" stroke-width="1.5"/><polygon fill="#6B7280" points="765 346 770 358 775 346"/><rect width="140" height="30" x="700" y="358" fill="#1E3A5F" stroke="#F59E0B" stroke-width="1.5" rx="8"/><text x="770" y="378" fill="#FCD34D" font-size="11" font-weight="700" text-anchor="middle">Grafana :3000</text><line x1="20" x2="40" y1="382" y2="382" stroke="#22C55E" stroke-width="2.5"/><text x="46" y="386" fill="#15803D" font-size="9.5">A — WiFi / HTTP (empfohlen)</text><line x1="195" x2="215" y1="382" y2="382" stroke="#F59E0B" stroke-dasharray="5 3" stroke-width="2"/><text x="221" y="386" fill="#B45309" font-size="9.5">B — WiFi / MQTT</text><line x1="340" x2="360" y1="382" y2="382" stroke="#94A3B8" stroke-dasharray="4 3" stroke-width="2"/><text x="366" y="386" fill="#64748B" font-size="9.5">C — Serial / USB</text></svg>