<svg xmlns="http://www.w3.org/2000/svg" font-family="ui-monospace, 'Cascadia Code', monospace" viewBox="0 0 720 320"><rect width="720" height="320" fill="#F8FAFC"/><rect width="140" height="190" x="20" y="60" fill="#fff" stroke="#CBD5E1" stroke-width="1.5" rx="10"/><rect width="140" height="32" x="20" y="60" fill="#374151" rx="10"/><rect width="140" height="12" x="20" y="80" fill="#374151"/><text x="90" y="82" fill="#fff" font-size="13" font-weight="700" text-anchor="middle">ESP32</text><rect width="116" height="20" x="32" y="104" fill="#EFF6FF" stroke="#93C5FD" stroke-width="1" rx="4"/><text x="90" y="119" fill="#1D4ED8" font-size="9.5" text-anchor="middle">Sensoren lesen</text><rect width="116" height="50" x="32" y="130" fill="#F8FAFC" stroke="#94A3B8" stroke-width="1.5" rx="4"/><text x="90" y="147" fill="#374151" font-size="9.5" font-weight="700" text-anchor="middle">ArduinoJson</text><text x="90" y="162" fill="#6B7280" font-size="8.5" text-anchor="middle">serializeJson(doc,</text><text x="90" y="175" fill="#6B7280" font-size="8.5" text-anchor="middle">Serial)</text><rect width="116" height="22" x="32" y="187" fill="#FEF2F2" stroke="#FCA5A5" stroke-width="1" rx="4"/><text x="90" y="203" fill="#B91C1C" font-size="9.5" text-anchor="middle">Serial.println()</text><rect width="116" height="28" x="32" y="215" fill="#F0FDF4" stroke="#86EFAC" stroke-width="1" rx="4"/><text x="90" y="229" fill="#15803D" font-size="8.5" text-anchor="middle">115200 baud</text><text x="90" y="241" fill="#15803D" font-size="8.5" text-anchor="middle">JSON + \n</text><rect width="76" height="14" x="162" y="170" fill="#374151" stroke="#111827" stroke-width="1" rx="7"/><rect width="12" height="20" x="230" y="167" fill="#6B7280" stroke="#374151" stroke-width="1" rx="2"/><rect width="8" height="16" x="158" y="169" fill="#6B7280" stroke="#374151" stroke-width="1" rx="2"/><text x="200" y="162" fill="#475569" font-size="9" text-anchor="middle">USB Kabel</text><text x="200" y="200" fill="#94A3B8" font-size="8.5" text-anchor="middle">/dev/ttyUSB0</text><text x="200" y="212" fill="#94A3B8" font-size="8.5" text-anchor="middle">COM3 (Win)</text><rect width="190" height="220" x="247" y="50" fill="#fff" stroke="#94A3B8" stroke-width="2" rx="10"/><rect width="190" height="32" x="247" y="50" fill="#374151" rx="10"/><rect width="190" height="12" x="247" y="70" fill="#374151"/><text x="342" y="72" fill="#fff" font-size="12" font-weight="700" text-anchor="middle">serial-bridge.py</text><text x="342" y="90" fill="#9CA3AF" font-size="9" text-anchor="middle">Host (außerhalb Docker)</text><rect width="164" height="26" x="260" y="100" fill="#F8FAFC" stroke="#94A3B8" stroke-width="1" rx="5"/><text x="342" y="118" fill="#374151" font-size="9.5" text-anchor="middle">serial_asyncio</text><rect width="164" height="26" x="260" y="133" fill="#FEF2F2" stroke="#FCA5A5" stroke-width="1" rx="5"/><text x="342" y="151" fill="#B91C1C" font-size="9.5" text-anchor="middle">SerialReader.data_received()</text><rect width="164" height="26" x="260" y="166" fill="#FFF7ED" stroke="#FDC086" stroke-width="1" rx="5"/><text x="342" y="184" fill="#C2410C" font-size="9.5" text-anchor="middle">json.loads(line)</text><rect width="164" height="26" x="260" y="199" fill="#F0FDF4" stroke="#86EFAC" stroke-width="1" rx="5"/><text x="342" y="217" fill="#15803D" font-size="9.5" text-anchor="middle">node.write_value(v)</text><rect width="164" height="30" x="260" y="232" fill="#EFF6FF" stroke="#93C5FD" stroke-width="1.5" rx="5"/><text x="342" y="249" fill="#1D4ED8" font-size="9" text-anchor="middle">asyncua Client</text><text x="342" y="262" fill="#6B7280" font-size="8.5" text-anchor="middle">opc.tcp://localhost:4840</text><line x1="437" x2="476" y1="170" y2="170" stroke="#3B82F6" stroke-width="2"/><polygon fill="#3B82F6" points="471 165 483 170 471 175"/><text x="457" y="163" fill="#1D4ED8" font-size="8" text-anchor="middle">OPC-UA</text><text x="457" y="186" fill="#1D4ED8" font-size="8" text-anchor="middle">:4840</text><rect width="145" height="100" x="480" y="120" fill="#1E3A5F" stroke="#2563EB" stroke-width="2" rx="8"/><text x="553" y="143" fill="#fff" font-size="11" font-weight="700" text-anchor="middle">OPC-UA Server</text><text x="553" y="159" fill="#93C5FD" font-size="8.5" text-anchor="middle">Docker Container</text><rect width="121" height="22" x="492" y="167" fill="#0F2744" stroke="#22C55E" stroke-width="1" rx="4"/><text x="553" y="182" fill="#4ADE80" font-size="9" text-anchor="middle">asyncua :4840</text><rect width="121" height="18" x="492" y="195" fill="#0F2744" stroke="#3B82F6" stroke-width="1" rx="4"/><text x="553" y="208" fill="#93C5FD" font-size="9" text-anchor="middle">exposed → localhost</text><line x1="553" x2="553" y1="220" y2="248" stroke="#6B7280" stroke-width="1.5"/><polygon fill="#6B7280" points="548 244 553 256 558 244"/><rect width="120" height="24" x="493" y="256" fill="#fff" stroke="#CBD5E1" stroke-width="1.5" rx="5"/><text x="553" y="273" fill="#111" font-size="9.5" font-weight="600" text-anchor="middle">Exporter :9686</text><line x1="553" x2="553" y1="280" y2="290" stroke="#6B7280" stroke-width="1.5"/><polygon fill="#6B7280" points="548 287 553 295 558 287"/><rect width="120" height="24" x="493" y="295" fill="#1E3A5F" stroke="#F59E0B" stroke-width="1.5" rx="5"/><text x="553" y="312" fill="#FCD34D" font-size="9.5" font-weight="700" text-anchor="middle">Grafana :3000</text><rect width="220" height="38" x="20" y="272" fill="#FEF9C3" stroke="#FDE047" stroke-width="1" rx="5"/><text x="130" y="287" fill="#713F12" font-size="9" font-weight="700" text-anchor="middle">Einschränkungen</text><text x="130" y="300" fill="#713F12" font-size="8.5" text-anchor="middle">Kein Docker USB-Zugriff → Bridge läuft auf Host</text><text x="130" y="311" fill="#713F12" font-size="8.5" text-anchor="middle">1 ESP32 pro Port · Kabel erforderlich</text><rect width="235" height="290" x="470" y="40" fill="none" stroke="#CBD5E1" stroke-dasharray="6 4" stroke-width="1" rx="6"/><text x="480" y="36" fill="#94A3B8" font-size="9">Docker Compose</text></svg>