<svg xmlns="http://www.w3.org/2000/svg" font-family="ui-monospace, 'Cascadia Code', monospace" viewBox="0 0 860 400"><rect width="860" height="400" fill="#F8FAFC"/><rect width="148" height="100" x="10" y="30" fill="#fff" stroke="#CBD5E1" stroke-width="1.5" rx="8"/><rect width="148" height="26" x="10" y="30" fill="#4338CA" rx="8"/><rect width="148" height="8" x="10" y="48" fill="#4338CA"/><text x="84" y="48" fill="#fff" font-size="11" font-weight="700" text-anchor="middle">Node A</text><rect width="128" height="18" x="20" y="65" fill="#EEF2FF" stroke="#6366F1" stroke-width="1" rx="3"/><text x="84" y="78" fill="#4338CA" font-size="9" text-anchor="middle">GPIO34 — Hall RPM</text><rect width="128" height="18" x="20" y="87" fill="#EEF2FF" stroke="#6366F1" stroke-width="1" rx="3"/><text x="84" y="100" fill="#4338CA" font-size="9" text-anchor="middle">GPIO32 — DS18B20 Temp</text><rect width="128" height="15" x="20" y="109" fill="#EEF2FF" stroke="#6366F1" stroke-width="1" rx="3"/><text x="84" y="121" fill="#4338CA" font-size="8.5" text-anchor="middle">esp_now_send()</text><rect width="148" height="100" x="10" y="155" fill="#fff" stroke="#CBD5E1" stroke-width="1.5" rx="8"/><rect width="148" height="26" x="10" y="155" fill="#4338CA" rx="8"/><rect width="148" height="8" x="10" y="173" fill="#4338CA"/><text x="84" y="173" fill="#fff" font-size="11" font-weight="700" text-anchor="middle">Node B</text><rect width="128" height="18" x="20" y="190" fill="#EEF2FF" stroke="#6366F1" stroke-width="1" rx="3"/><text x="84" y="203" fill="#4338CA" font-size="9" text-anchor="middle">GPIO36 — Tankgeber ADC</text><rect width="128" height="18" x="20" y="212" fill="#EEF2FF" stroke="#6366F1" stroke-width="1" rx="3"/><text x="84" y="225" fill="#4338CA" font-size="9" text-anchor="middle">GPIO33 — MPX4250 Oil</text><rect width="128" height="15" x="20" y="234" fill="#EEF2FF" stroke="#6366F1" stroke-width="1" rx="3"/><text x="84" y="246" fill="#4338CA" font-size="8.5" text-anchor="middle">esp_now_send()</text><rect width="148" height="100" x="10" y="280" fill="#fff" stroke="#CBD5E1" stroke-width="1.5" rx="8"/><rect width="148" height="26" x="10" y="280" fill="#4338CA" rx="8"/><rect width="148" height="8" x="10" y="298" fill="#4338CA"/><text x="84" y="298" fill="#fff" font-size="11" font-weight="700" text-anchor="middle">Node C</text><rect width="128" height="18" x="20" y="315" fill="#EEF2FF" stroke="#6366F1" stroke-width="1" rx="3"/><text x="84" y="328" fill="#4338CA" font-size="9" text-anchor="middle">GPIO39 — Batt 12V ÷ 4.7</text><rect width="128" height="18" x="20" y="337" fill="#EEF2FF" stroke="#6366F1" stroke-width="1" rx="3"/><text x="84" y="350" fill="#4338CA" font-size="9" text-anchor="middle">BLE — TPMS 4× Reifen</text><rect width="128" height="15" x="20" y="359" fill="#EEF2FF" stroke="#6366F1" stroke-width="1" rx="3"/><text x="84" y="371" fill="#4338CA" font-size="8.5" text-anchor="middle">esp_now_send()</text><line x1="158" x2="280" y1="80" y2="185" stroke="#6366F1" stroke-dasharray="6 3" stroke-width="2"/><line x1="158" x2="280" y1="205" y2="205" stroke="#6366F1" stroke-width="2.5"/><line x1="158" x2="280" y1="330" y2="225" stroke="#6366F1" stroke-dasharray="6 3" stroke-width="2"/><rect width="80" height="32" x="162" y="155" fill="#EEF2FF" stroke="#6366F1" stroke-width="1.5" rx="5"/><text x="202" y="169" fill="#4338CA" font-size="9" font-weight="700" text-anchor="middle">ESP-NOW</text><text x="202" y="181" fill="#6B7280" font-size="8" text-anchor="middle">~1 ms · 250 B</text><polygon fill="#6366F1" points="275 180 287 185 275 190"/><polygon fill="#6366F1" points="275 200 287 205 275 210"/><polygon fill="#6366F1" points="275 220 287 225 275 230"/><rect width="200" height="210" x="287" y="100" fill="#1E3A5F" stroke="#6366F1" stroke-width="2.5" rx="10"/><text x="387" y="124" fill="#fff" font-size="12" font-weight="700" text-anchor="middle">Gateway ESP32</text><text x="387" y="140" fill="#A5B4FC" font-size="9" text-anchor="middle">ESP-NOW + WiFi gleichzeitig</text><rect width="176" height="30" x="299" y="150" fill="#0F2744" stroke="#6366F1" stroke-width="1" rx="5"/><text x="387" y="164" fill="#A5B4FC" font-size="9.5" text-anchor="middle">esp_now_register_recv_cb()</text><text x="387" y="177" fill="#6B7280" font-size="8.5" text-anchor="middle">empfängt sensor_msg_t</text><rect width="176" height="30" x="299" y="188" fill="#0F2744" stroke="#818CF8" stroke-width="1" rx="5"/><text x="387" y="203" fill="#C7D2FE" font-size="9.5" text-anchor="middle">merge → std::map</text><text x="387" y="216" fill="#6B7280" font-size="8.5" text-anchor="middle">node_a + node_b + node_c</text><rect width="176" height="30" x="299" y="226" fill="#0F2744" stroke="#22C55E" stroke-width="1" rx="5"/><text x="387" y="241" fill="#4ADE80" font-size="9.5" text-anchor="middle">ArduinoJson → HTTP POST</text><text x="387" y="254" fill="#6B7280" font-size="8.5" text-anchor="middle">alle 2 s → :4841/sensor</text><rect width="176" height="22" x="299" y="264" fill="#0F2744" stroke="#34D399" stroke-width="1" rx="5"/><text x="387" y="279" fill="#6EE7B7" font-size="9" text-anchor="middle">WiFi · HTTPClient</text><line x1="487" x2="526" y1="205" y2="205" stroke="#22C55E" stroke-width="2.5"/><polygon fill="#22C55E" points="521 200 533 205 521 210"/><text x="507" y="197" fill="#15803D" font-size="8.5" text-anchor="middle">HTTP</text><text x="507" y="218" fill="#15803D" font-size="8.5" text-anchor="middle">:4841</text><rect width="160" height="150" x="533" y="130" fill="#1E3A5F" stroke="#2563EB" stroke-width="2" rx="8"/><text x="613" y="153" fill="#fff" font-size="11" font-weight="700" text-anchor="middle">OPC-UA Server</text><text x="613" y="168" fill="#93C5FD" font-size="8.5" text-anchor="middle">asyncua :4840 / :4841</text><rect width="136" height="22" x="545" y="178" fill="#0F2744" stroke="#22C55E" stroke-width="1" rx="4"/><text x="613" y="193" fill="#4ADE80" font-size="9" text-anchor="middle">handle_sensor()</text><rect width="136" height="40" x="545" y="208" fill="#0F2744" stroke="#3B82F6" stroke-width="1" rx="4"/><text x="613" y="224" fill="#93C5FD" font-size="8.5" text-anchor="middle">RPM · Temp · Oil</text><text x="613" y="237" fill="#93C5FD" font-size="8.5" text-anchor="middle">Fuel · Batt · Tire</text><text x="613" y="250" fill="#93C5FD" font-size="8.5" text-anchor="middle">Speed · Faults</text><rect width="136" height="18" x="545" y="256" fill="#0F2744" stroke="#6366F1" stroke-width="1" rx="4"/><text x="613" y="269" fill="#A5B4FC" font-size="8.5" text-anchor="middle">node.write_value()</text><line x1="693" x2="722" y1="205" y2="205" stroke="#6B7280" stroke-width="1.5"/><polygon fill="#6B7280" points="717 200 729 205 717 210"/><rect width="120" height="50" x="729" y="180" fill="#fff" stroke="#CBD5E1" stroke-width="1.5" rx="6"/><text x="789" y="199" fill="#111" font-size="10" font-weight="600" text-anchor="middle">Exporter</text><text x="789" y="213" fill="#6B7280" font-size="8.5" text-anchor="middle">:9686/metrics</text><text x="789" y="226" fill="#6B7280" font-size="8.5" text-anchor="middle">Gauges</text><line x1="789" x2="789" y1="230" y2="250" stroke="#6B7280" stroke-width="1.5"/><polygon fill="#6B7280" points="784 246 789 258 794 246"/><rect width="120" height="34" x="729" y="258" fill="#fff" stroke="#CBD5E1" stroke-width="1.5" rx="6"/><text x="789" y="276" fill="#111" font-size="10" font-weight="600" text-anchor="middle">Prometheus</text><text x="789" y="288" fill="#6B7280" font-size="8.5" text-anchor="middle">:9090</text><line x1="789" x2="789" y1="292" y2="310" stroke="#6B7280" stroke-width="1.5"/><polygon fill="#6B7280" points="784 306 789 318 794 306"/><rect width="120" height="28" x="729" y="318" fill="#1E3A5F" stroke="#F59E0B" stroke-width="1.5" rx="6"/><text x="789" y="337" fill="#FCD34D" font-size="10" font-weight="700" text-anchor="middle">Grafana :3000</text><rect width="840" height="0" x="10" y="392" fill="none" rx="0"/><rect width="200" height="50" x="287" y="325" fill="#EEF2FF" stroke="#6366F1" stroke-width="1" rx="5"/><text x="387" y="341" fill="#4338CA" font-size="9" font-weight="700" text-anchor="middle">Kein WiFi-Router zwischen Nodes nötig</text><text x="387" y="355" fill="#4338CA" font-size="8.5" text-anchor="middle">Reichweite ~30–50 m im Fahrzeug</text><text x="387" y="368" fill="#4338CA" font-size="8.5" text-anchor="middle">Bis zu 20 Sensor-Nodes · ESP-NOW ≤ 250 Byte</text></svg>