<svg xmlns="http://www.w3.org/2000/svg" font-family="ui-monospace, 'Cascadia Code', monospace" viewBox="0 0 720 340"><rect width="720" height="340" fill="#F8FAFC"/><rect width="150" height="220" x="20" y="60" fill="#fff" stroke="#CBD5E1" stroke-width="1.5" rx="10"/><rect width="150" height="32" x="20" y="60" fill="#1E3A5F" rx="10"/><rect width="150" height="12" x="20" y="80" fill="#1E3A5F"/><text x="95" y="82" fill="#fff" font-size="13" font-weight="700" text-anchor="middle">ESP32</text><rect width="126" height="22" x="32" y="103" fill="#EFF6FF" stroke="#93C5FD" stroke-width="1" rx="4"/><text x="95" y="119" fill="#1D4ED8" font-size="10" text-anchor="middle">DS18B20 (OneWire)</text><rect width="126" height="22" x="32" y="131" fill="#F0FDF4" stroke="#86EFAC" stroke-width="1" rx="4"/><text x="95" y="147" fill="#15803D" font-size="10" text-anchor="middle">Hall RPM (INT)</text><rect width="126" height="22" x="32" y="159" fill="#FFF7ED" stroke="#FDC086" stroke-width="1" rx="4"/><text x="95" y="175" fill="#C2410C" font-size="10" text-anchor="middle">MPX4250 (ADC)</text><rect width="126" height="22" x="32" y="187" fill="#FFF7ED" stroke="#FDC086" stroke-width="1" rx="4"/><text x="95" y="203" fill="#C2410C" font-size="10" text-anchor="middle">Tankgeber (ADC)</text><rect width="126" height="22" x="32" y="215" fill="#F5F3FF" stroke="#C4B5FD" stroke-width="1" rx="4"/><text x="95" y="231" fill="#6D28D9" font-size="10" text-anchor="middle">Batt 12V ÷ 4.7</text><rect width="126" height="28" x="32" y="243" fill="#F0FDF4" stroke="#22C55E" stroke-width="1.5" rx="4"/><text x="95" y="258" fill="#15803D" font-size="10" font-weight="700" text-anchor="middle">HTTPClient</text><text x="95" y="270" fill="#15803D" font-size="9" text-anchor="middle">http.POST(body)</text><text x="95" y="298" fill="#94A3B8" font-size="9" text-anchor="middle">802.11 WiFi</text><line x1="95" x2="200" y1="300" y2="300" stroke="#94A3B8" stroke-dasharray="3 2" stroke-width="1"/><line x1="170" x2="240" y1="180" y2="180" stroke="#22C55E" stroke-width="2.5"/><polygon fill="#22C55E" points="235 175 247 180 235 185"/><rect width="66" height="32" x="172" y="155" fill="#F0FDF4" stroke="#22C55E" stroke-width="1.5" rx="5"/><text x="205" y="169" fill="#15803D" font-size="9.5" font-weight="700" text-anchor="middle">HTTP POST</text><text x="205" y="182" fill="#6B7280" font-size="8.5" text-anchor="middle">:4841/sensor</text><rect width="190" height="220" x="247" y="60" fill="#1E3A5F" stroke="#2563EB" stroke-width="2" rx="10"/><text x="342" y="85" fill="#fff" font-size="12" font-weight="700" text-anchor="middle">opcua-server</text><text x="342" y="101" fill="#93C5FD" font-size="9.5" text-anchor="middle">port 4840 (OPC-UA)</text><text x="342" y="116" fill="#22C55E" font-size="9.5" text-anchor="middle">port 4841 (HTTP)</text><rect width="164" height="38" x="260" y="126" fill="#0F2744" stroke="#22C55E" stroke-width="1" rx="5"/><text x="342" y="142" fill="#4ADE80" font-size="9.5" text-anchor="middle">handle_sensor(request)</text><text x="342" y="157" fill="#6B7280" font-size="8.5" text-anchor="middle">aiohttp endpoint</text><rect width="164" height="26" x="260" y="172" fill="#0F2744" stroke="#3B82F6" stroke-width="1" rx="5"/><text x="342" y="190" fill="#60A5FA" font-size="9.5" text-anchor="middle">node.write_value(v)</text><rect width="164" height="50" x="260" y="206" fill="#0F2744" stroke="#3B82F6" stroke-width="1" rx="5"/><text x="342" y="222" fill="#93C5FD" font-size="8.5" text-anchor="middle">RPM · Temp · Oil</text><text x="342" y="236" fill="#93C5FD" font-size="8.5" text-anchor="middle">Fuel · Batt · Speed</text><text x="342" y="250" fill="#93C5FD" font-size="8.5" text-anchor="middle">Tire · Faults</text><rect width="164" height="22" x="260" y="263" fill="#0F2744" stroke="#22C55E" stroke-width="1" rx="5"/><text x="342" y="278" fill="#4ADE80" font-size="9.5" font-weight="600" text-anchor="middle">asyncua :4840</text><line x1="437" x2="476" y1="170" y2="170" stroke="#6B7280" stroke-width="2"/><polygon fill="#6B7280" points="471 165 483 170 471 175"/><rect width="130" height="60" x="483" y="140" fill="#fff" stroke="#CBD5E1" stroke-width="1.5" rx="8"/><text x="548" y="162" fill="#111" font-size="11" font-weight="600" text-anchor="middle">Exporter</text><text x="548" y="178" fill="#6B7280" font-size="9" text-anchor="middle">Prometheus Gauges</text><text x="548" y="193" fill="#6B7280" font-size="9" text-anchor="middle">:9686/metrics</text><line x1="548" x2="548" y1="200" y2="230" stroke="#6B7280" stroke-width="1.5"/><polygon fill="#6B7280" points="543 226 548 238 553 226"/><rect width="130" height="40" x="483" y="238" fill="#fff" stroke="#CBD5E1" stroke-width="1.5" rx="8"/><text x="548" y="258" fill="#111" font-size="11" font-weight="600" text-anchor="middle">Prometheus</text><text x="548" y="272" fill="#6B7280" font-size="9" text-anchor="middle">:9090</text><line x1="548" x2="548" y1="278" y2="296" stroke="#6B7280" stroke-width="1.5"/><polygon fill="#6B7280" points="543 292 548 304 553 292"/><rect width="130" height="28" x="483" y="304" fill="#1E3A5F" stroke="#F59E0B" stroke-width="1.5" rx="8"/><text x="548" y="323" fill="#FCD34D" font-size="11" font-weight="700" text-anchor="middle">Grafana :3000</text><rect width="80" height="112" x="633" y="100" fill="#F0FDF4" stroke="#22C55E" stroke-width="1.5" rx="6"/><text x="673" y="117" fill="#15803D" font-size="8.5" font-weight="700" text-anchor="middle">JSON Body</text><text x="643" y="132" fill="#374151" font-size="7.5">&quot;RPM&quot;: 2400</text><text x="643" y="145" fill="#374151" font-size="7.5">&quot;Temp&quot;: 82.3</text><text x="643" y="158" fill="#374151" font-size="7.5">&quot;Oil&quot;: 3.1</text><text x="643" y="171" fill="#374151" font-size="7.5">&quot;Fuel&quot;: 68.0</text><text x="643" y="184" fill="#374151" font-size="7.5">&quot;Batt&quot;: 13.8</text><text x="643" y="197" fill="#374151" font-size="7.5">&quot;Speed&quot;: 87.5</text><line x1="633" x2="713" y1="203" y2="203" stroke="#22C55E" stroke-width="1"/><text x="673" y="216" fill="#15803D" font-size="7.5" text-anchor="middle">→ 200 OK</text><line x1="633" x2="248" y1="156" y2="180" stroke="#22C55E" stroke-dasharray="4 2" stroke-width="1"/></svg>