<svg xmlns="http://www.w3.org/2000/svg" font-family="ui-monospace, 'Cascadia Code', monospace" viewBox="0 0 780 340"><rect width="780" height="340" fill="#F8FAFC"/><rect width="140" height="200" x="20" y="60" fill="#fff" stroke="#CBD5E1" stroke-width="1.5" rx="10"/><rect width="140" height="32" x="20" y="60" fill="#1E3A5F" rx="10"/><rect width="140" height="12" x="20" y="80" fill="#1E3A5F"/><text x="90" y="82" fill="#fff" font-size="13" font-weight="700" text-anchor="middle">ESP32</text><rect width="116" height="20" x="32" y="104" fill="#EFF6FF" stroke="#93C5FD" stroke-width="1" rx="4"/><text x="90" y="119" fill="#1D4ED8" font-size="9.5" text-anchor="middle">Sensoren lesen</text><rect width="116" height="36" x="32" y="130" fill="#FFFBEB" stroke="#F59E0B" stroke-width="1.5" rx="4"/><text x="90" y="144" fill="#B45309" font-size="9.5" font-weight="700" text-anchor="middle">PubSubClient</text><text x="90" y="160" fill="#78350F" font-size="8.5" text-anchor="middle">mqtt.publish()</text><rect width="116" height="56" x="32" y="173" fill="#FFF7ED" stroke="#F59E0B" stroke-width="1" rx="4"/><text x="90" y="190" fill="#78350F" font-size="8.5" text-anchor="middle">vehicle/RPM</text><text x="90" y="204" fill="#78350F" font-size="8.5" text-anchor="middle">vehicle/EngineTemperature_C</text><text x="90" y="218" fill="#78350F" font-size="8.5" text-anchor="middle">vehicle/OilPressure_bar</text><text x="90" y="232" fill="#78350F" font-size="8.5" text-anchor="middle">...</text><text x="90" y="273" fill="#94A3B8" font-size="8.5" text-anchor="middle">WiFi 802.11</text><line x1="160" x2="208" y1="180" y2="180" stroke="#F59E0B" stroke-width="2.5"/><polygon fill="#F59E0B" points="203 175 215 180 203 185"/><text x="184" y="173" fill="#B45309" font-size="8.5" text-anchor="middle">MQTT</text><text x="184" y="196" fill="#B45309" font-size="8.5" text-anchor="middle">:1883</text><rect width="130" height="80" x="215" y="140" fill="#FFFBEB" stroke="#F59E0B" stroke-width="2" rx="8"/><text x="280" y="163" fill="#B45309" font-size="11" font-weight="700" text-anchor="middle">Mosquitto</text><text x="280" y="179" fill="#78350F" font-size="9.5" text-anchor="middle">Broker :1883</text><rect width="106" height="22" x="227" y="188" fill="#FEF3C7" stroke="#F59E0B" stroke-width="1" rx="4"/><text x="280" y="203" fill="#92400E" font-size="8.5" text-anchor="middle">subscribe: vehicle/#</text><line x1="345" x2="388" y1="180" y2="180" stroke="#F59E0B" stroke-width="2.5"/><polygon fill="#F59E0B" points="383 175 395 180 383 185"/><text x="367" y="173" fill="#B45309" font-size="8.5" text-anchor="middle">paho</text><text x="367" y="196" fill="#B45309" font-size="8.5" text-anchor="middle">mqtt</text><rect width="160" height="140" x="395" y="110" fill="#fff" stroke="#CBD5E1" stroke-width="1.5" rx="10"/><rect width="160" height="30" x="395" y="110" fill="#374151" rx="10"/><rect width="160" height="12" x="395" y="128" fill="#374151"/><text x="475" y="130" fill="#fff" font-size="11" font-weight="700" text-anchor="middle">mqtt-bridge</text><rect width="134" height="24" x="408" y="150" fill="#F0FDF4" stroke="#86EFAC" stroke-width="1" rx="4"/><text x="475" y="167" fill="#15803D" font-size="9.5" text-anchor="middle">on_message()</text><rect width="134" height="24" x="408" y="180" fill="#EFF6FF" stroke="#93C5FD" stroke-width="1" rx="4"/><text x="475" y="197" fill="#1D4ED8" font-size="9.5" text-anchor="middle">node.write_value(v)</text><rect width="134" height="32" x="408" y="210" fill="#EFF6FF" stroke="#3B82F6" stroke-width="1" rx="4"/><text x="475" y="224" fill="#1D4ED8" font-size="8.5" text-anchor="middle">asyncua Client</text><text x="475" y="237" fill="#6B7280" font-size="8.5" text-anchor="middle">opc.tcp://opcua-server</text><line x1="555" x2="592" y1="180" y2="180" stroke="#3B82F6" stroke-width="2"/><polygon fill="#3B82F6" points="587 175 599 180 587 185"/><text x="574" y="173" fill="#1D4ED8" font-size="8" text-anchor="middle">OPC-UA</text><text x="574" y="196" fill="#1D4ED8" font-size="8" text-anchor="middle">:4840</text><rect width="150" height="80" x="599" y="140" fill="#1E3A5F" stroke="#2563EB" stroke-width="2" rx="8"/><text x="674" y="163" fill="#fff" font-size="11" font-weight="700" text-anchor="middle">OPC-UA Server</text><text x="674" y="179" fill="#93C5FD" font-size="9" text-anchor="middle">asyncua :4840</text><rect width="126" height="24" x="611" y="186" fill="#0F2744" stroke="#22C55E" stroke-width="1" rx="4"/><text x="674" y="203" fill="#4ADE80" font-size="9" font-weight="600" text-anchor="middle">8 OPC-UA Nodes</text><line x1="674" x2="674" y1="220" y2="248" stroke="#6B7280" stroke-width="1.5"/><polygon fill="#6B7280" points="669 244 674 256 679 244"/><rect width="120" height="30" x="614" y="256" fill="#fff" stroke="#CBD5E1" stroke-width="1.5" rx="6"/><text x="674" y="276" fill="#111" font-size="9.5" font-weight="600" text-anchor="middle">Exporter :9686</text><line x1="674" x2="674" y1="286" y2="299" stroke="#6B7280" stroke-width="1.5"/><polygon fill="#6B7280" points="669 295 674 307 679 295"/><rect width="120" height="26" x="614" y="307" fill="#fff" stroke="#CBD5E1" stroke-width="1.5" rx="6"/><text x="674" y="325" fill="#111" font-size="9.5" font-weight="600" text-anchor="middle">Prometheus :9090</text><rect width="590" height="280" x="205" y="45" fill="none" stroke="#CBD5E1" stroke-dasharray="6 4" stroke-width="1" rx="6"/><text x="215" y="40" fill="#94A3B8" font-size="9">Docker Compose Network</text><rect width="170" height="42" x="20" y="285" fill="#FEF9C3" stroke="#FDE047" stroke-width="1" rx="5"/><text x="105" y="300" fill="#713F12" font-size="9" font-weight="700" text-anchor="middle">MQTT QoS Levels</text><text x="105" y="313" fill="#713F12" font-size="8.5" text-anchor="middle">QoS 0 — Demo</text><text x="105" y="324" fill="#713F12" font-size="8.5" text-anchor="middle">QoS 1/2 — Produktion</text></svg>