<svg xmlns="http://www.w3.org/2000/svg" font-family="ui-monospace, 'Cascadia Code', monospace" viewBox="0 0 820 500"><rect width="820" height="500" fill="#F8FAFC"/><rect width="210" height="340" x="305" y="80" fill="#1E3A5F" stroke="#2563EB" stroke-width="2" rx="10"/><rect width="210" height="340" x="305" y="80" fill="url(#pcb)" opacity=".15" rx="10"/><text x="410" y="106" fill="#fff" font-size="13" font-weight="700" text-anchor="middle">ESP32 DevKitC</text><text x="410" y="122" fill="#93C5FD" font-size="9" text-anchor="middle">ADC1 Pins (WiFi-safe)</text><rect width="90" height="20" x="310" y="136" fill="#0F2744" stroke="#3B82F6" stroke-width="1" rx="3"/><text x="355" y="151" fill="#60A5FA" font-size="9.5" text-anchor="middle">GPIO34 — RPM</text><rect width="90" height="20" x="310" y="162" fill="#0F2744" stroke="#3B82F6" stroke-width="1" rx="3"/><text x="355" y="177" fill="#60A5FA" font-size="9.5" text-anchor="middle">GPIO35 — Speed</text><rect width="90" height="20" x="310" y="188" fill="#0F2744" stroke="#22C55E" stroke-width="1" rx="3"/><text x="355" y="203" fill="#4ADE80" font-size="9.5" text-anchor="middle">GPIO32 — DS18B20</text><rect width="90" height="20" x="310" y="214" fill="#0F2744" stroke="#F59E0B" stroke-width="1" rx="3"/><text x="355" y="229" fill="#FCD34D" font-size="9.5" text-anchor="middle">GPIO36 — Fuel</text><rect width="90" height="20" x="310" y="240" fill="#0F2744" stroke="#F59E0B" stroke-width="1" rx="3"/><text x="355" y="255" fill="#FCD34D" font-size="9.5" text-anchor="middle">GPIO33 — Oil</text><rect width="90" height="20" x="310" y="266" fill="#0F2744" stroke="#A78BFA" stroke-width="1" rx="3"/><text x="355" y="281" fill="#C4B5FD" font-size="9.5" text-anchor="middle">GPIO39 — Batt</text><rect width="90" height="20" x="310" y="292" fill="#0F2744" stroke="#F87171" stroke-width="1" rx="3"/><text x="355" y="307" fill="#FCA5A5" font-size="9.5" text-anchor="middle">GPIO26 — Fault1</text><rect width="90" height="20" x="310" y="318" fill="#0F2744" stroke="#F87171" stroke-width="1" rx="3"/><text x="355" y="333" fill="#FCA5A5" font-size="9.5" text-anchor="middle">GPIO27 — Fault2</text><rect width="90" height="20" x="415" y="136" fill="#0F2744" stroke="#6B7280" stroke-width="1" rx="3"/><text x="460" y="151" fill="#9CA3AF" font-size="9.5" text-anchor="middle">3.3 V — VCC</text><rect width="90" height="20" x="415" y="162" fill="#0F2744" stroke="#6B7280" stroke-width="1" rx="3"/><text x="460" y="177" fill="#9CA3AF" font-size="9.5" text-anchor="middle">GND</text><rect width="90" height="46" x="415" y="292" fill="#0F2744" stroke="#818CF8" stroke-width="1.5" rx="5"/><text x="460" y="310" fill="#818CF8" font-size="9.5" font-weight="600" text-anchor="middle">BLE Scan</text><text x="460" y="325" fill="#818CF8" font-size="8.5" text-anchor="middle">TPMS Sensoren</text><text x="460" y="338" fill="#818CF8" font-size="8.5" text-anchor="middle">4 × Reifendruck</text><rect width="160" height="48" x="330" y="360" fill="#0F2744" stroke="#22C55E" stroke-width="1.5" rx="5"/><text x="410" y="378" fill="#4ADE80" font-size="9.5" font-weight="700" text-anchor="middle">WiFi → OPC-UA Server</text><text x="410" y="393" fill="#86EFAC" font-size="8.5" text-anchor="middle">HTTP POST / MQTT publish</text><text x="410" y="406" fill="#6B7280" font-size="8.5" text-anchor="middle">Serial JSON → Bridge</text><rect width="130" height="36" x="30" y="128" fill="#EFF6FF" stroke="#3B82F6" stroke-width="1.5" rx="6"/><text x="95" y="144" fill="#1D4ED8" font-size="10" font-weight="700" text-anchor="middle">Hall RPM (AH3144)</text><text x="95" y="158" fill="#6B7280" font-size="8.5" text-anchor="middle">Verteilerrotor · 4-Takt</text><line x1="160" x2="308" y1="146" y2="146" stroke="#3B82F6" stroke-width="1.5"/><rect width="2" height="12" x="218" y="140" fill="#3B82F6"/><rect width="2" height="12" x="222" y="140" fill="#3B82F6"/><text x="222" y="135" fill="#3B82F6" font-size="7.5" text-anchor="middle">100nF</text><line x1="234" x2="234" y1="146" y2="128" stroke="#3B82F6" stroke-width="1"/><rect width="12" height="6" x="228" y="118" fill="#FEF9C3" stroke="#3B82F6" stroke-width="1" rx="1"/><text x="234" y="114" fill="#3B82F6" font-size="7" text-anchor="middle">10kΩ</text><line x1="234" x2="234" y1="118" y2="110" stroke="#3B82F6" stroke-width="1"/><text x="234" y="108" fill="#3B82F6" font-size="7" text-anchor="middle">3V3</text><rect width="130" height="36" x="30" y="155" fill="#EFF6FF" stroke="#3B82F6" stroke-width="1.5" rx="6"/><text x="95" y="170" fill="#1D4ED8" font-size="10" font-weight="700" text-anchor="middle">Hall Speed (AH3144)</text><text x="95" y="184" fill="#6B7280" font-size="8.5" text-anchor="middle">Radnabe · Ø 1.905 m</text><line x1="160" x2="308" y1="172" y2="172" stroke="#3B82F6" stroke-width="1.5"/><rect width="130" height="36" x="30" y="183" fill="#F0FDF4" stroke="#22C55E" stroke-width="1.5" rx="6"/><text x="95" y="199" fill="#15803D" font-size="10" font-weight="700" text-anchor="middle">DS18B20</text><text x="95" y="213" fill="#6B7280" font-size="8.5" text-anchor="middle">OneWire · 4.7kΩ → 3V3</text><line x1="160" x2="308" y1="198" y2="198" stroke="#22C55E" stroke-width="1.5"/><rect width="12" height="6" x="254" y="189" fill="#FEF9C3" stroke="#22C55E" stroke-width="1" rx="1"/><text x="260" y="186" fill="#22C55E" font-size="7" text-anchor="middle">4.7kΩ</text><rect width="130" height="36" x="30" y="214" fill="#FFF7ED" stroke="#F59E0B" stroke-width="1.5" rx="6"/><text x="95" y="229" fill="#B45309" font-size="10" font-weight="700" text-anchor="middle">Tankgeber</text><text x="95" y="243" fill="#6B7280" font-size="8.5" text-anchor="middle">0–180 Ω · 180Ω Teiler</text><line x1="160" x2="308" y1="224" y2="224" stroke="#F59E0B" stroke-width="1.5"/><rect width="16" height="8" x="248" y="218" fill="#FEF9C3" stroke="#F59E0B" stroke-width="1" rx="2"/><text x="256" y="215" fill="#F59E0B" font-size="7" text-anchor="middle">180Ω</text><rect width="130" height="36" x="30" y="245" fill="#FFF7ED" stroke="#F59E0B" stroke-width="1.5" rx="6"/><text x="95" y="261" fill="#B45309" font-size="10" font-weight="700" text-anchor="middle">MPX4250AP</text><text x="95" y="275" fill="#6B7280" font-size="8.5" text-anchor="middle">0–2.5 bar · 10k/6.8k Teiler</text><line x1="160" x2="308" y1="250" y2="250" stroke="#F59E0B" stroke-width="1.5"/><rect width="12" height="6" x="244" y="244" fill="#FEF9C3" stroke="#F59E0B" stroke-width="1" rx="1"/><text x="250" y="241" fill="#F59E0B" font-size="7" text-anchor="middle">10kΩ</text><rect width="12" height="6" x="244" y="252" fill="#FEF9C3" stroke="#F59E0B" stroke-width="1" rx="1"/><text x="250" y="265" fill="#F59E0B" font-size="7" text-anchor="middle">6.8kΩ</text><rect width="130" height="36" x="30" y="275" fill="#F5F3FF" stroke="#7C3AED" stroke-width="1.5" rx="6"/><text x="95" y="290" fill="#6D28D9" font-size="10" font-weight="700" text-anchor="middle">12V Batt (Teiler)</text><text x="95" y="304" fill="#6B7280" font-size="8.5" text-anchor="middle">10kΩ / 2.7kΩ · max 15V</text><line x1="160" x2="308" y1="276" y2="276" stroke="#7C3AED" stroke-width="1.5"/><rect width="12" height="6" x="244" y="270" fill="#EDE9FE" stroke="#7C3AED" stroke-width="1" rx="1"/><text x="250" y="267" fill="#7C3AED" font-size="7" text-anchor="middle">10kΩ</text><rect width="12" height="6" x="244" y="278" fill="#EDE9FE" stroke="#7C3AED" stroke-width="1" rx="1"/><text x="250" y="291" fill="#7C3AED" font-size="7" text-anchor="middle">2.7kΩ</text><rect width="130" height="52" x="30" y="310" fill="#FFF1F2" stroke="#F43F5E" stroke-width="1.5" rx="6"/><text x="95" y="326" fill="#B91C1C" font-size="10" font-weight="700" text-anchor="middle">Warnleuchten</text><text x="95" y="341" fill="#6B7280" font-size="8.5" text-anchor="middle">12V Optokoppler PC817</text><text x="95" y="355" fill="#6B7280" font-size="8.5" text-anchor="middle">→ 3.3V GPIO isoliert</text><line x1="160" x2="308" y1="302" y2="302" stroke="#F43F5E" stroke-width="1.5"/><line x1="160" x2="308" y1="328" y2="328" stroke="#F43F5E" stroke-width="1.5"/><rect width="270" height="340" x="525" y="80" fill="#fff" stroke="#CBD5E1" stroke-width="1.5" rx="10"/><rect width="270" height="32" x="525" y="80" fill="#0F172A" rx="10"/><rect width="270" height="12" x="525" y="100" fill="#0F172A"/><text x="660" y="102" fill="#fff" font-size="12" font-weight="700" text-anchor="middle">OPC-UA Nodes</text><text x="540" y="130" fill="#6B7280" font-size="9.5">GPIO</text><text x="600" y="130" fill="#6B7280" font-size="9.5">Sensor</text><text x="700" y="130" fill="#6B7280" font-size="9.5">Node</text><line x1="530" x2="788" y1="135" y2="135" stroke="#E2E8F0" stroke-width="1"/><rect width="255" height="24" x="530" y="140" fill="#F0FDF4" rx="3"/><text x="545" y="157" fill="#374151" font-size="9">GPIO34</text><text x="600" y="157" fill="#374151" font-size="9">Hall RPM</text><text x="700" y="157" fill="#15803D" font-size="9" font-weight="600">RPM</text><rect width="255" height="24" x="530" y="168" fill="#EFF6FF" rx="3"/><text x="545" y="185" fill="#374151" font-size="9">GPIO35</text><text x="600" y="185" fill="#374151" font-size="9">Hall Speed</text><text x="700" y="185" fill="#1D4ED8" font-size="9" font-weight="600">Speed_kmh</text><rect width="255" height="24" x="530" y="196" fill="#F0FDF4" rx="3"/><text x="545" y="213" fill="#374151" font-size="9">GPIO32</text><text x="600" y="213" fill="#374151" font-size="9">DS18B20</text><text x="700" y="213" fill="#15803D" font-size="9" font-weight="600">EngineTemperature_C</text><rect width="255" height="24" x="530" y="224" fill="#FFF7ED" rx="3"/><text x="545" y="241" fill="#374151" font-size="9">GPIO36</text><text x="600" y="241" fill="#374151" font-size="9">Tankgeber ADC</text><text x="700" y="241" fill="#B45309" font-size="9" font-weight="600">FuelLevel_pct</text><rect width="255" height="24" x="530" y="252" fill="#FFF7ED" rx="3"/><text x="545" y="269" fill="#374151" font-size="9">GPIO33</text><text x="600" y="269" fill="#374151" font-size="9">MPX4250 ADC</text><text x="700" y="269" fill="#B45309" font-size="9" font-weight="600">OilPressure_bar</text><rect width="255" height="24" x="530" y="280" fill="#F5F3FF" rx="3"/><text x="545" y="297" fill="#374151" font-size="9">GPIO39</text><text x="600" y="297" fill="#374151" font-size="9">Spannungsteiler</text><text x="700" y="297" fill="#7C3AED" font-size="9" font-weight="600">BatteryVoltage_V</text><rect width="255" height="24" x="530" y="308" fill="#FFF1F2" rx="3"/><text x="545" y="325" fill="#374151" font-size="9">GPIO26/27</text><text x="600" y="325" fill="#374151" font-size="9">Optokoppler</text><text x="700" y="325" fill="#B91C1C" font-size="9" font-weight="600">ActiveFaultCount</text><rect width="255" height="24" x="530" y="336" fill="#EEF2FF" rx="3"/><text x="545" y="353" fill="#374151" font-size="9">BLE</text><text x="600" y="353" fill="#374151" font-size="9">TPMS Sensoren</text><text x="700" y="353" fill="#4338CA" font-size="9" font-weight="600">TirePressure_bar</text><line x1="530" x2="788" y1="364" y2="364" stroke="#E2E8F0" stroke-width="1"/><rect width="255" height="40" x="530" y="370" fill="#FEF9C3" rx="3"/><text x="660" y="386" fill="#713F12" font-size="8.5" font-weight="700" text-anchor="middle">ADC2 (GPIO0–19) meiden!</text><text x="660" y="400" fill="#713F12" font-size="8.5" text-anchor="middle">Unzuverlässig bei aktivem WiFi → nur ADC1</text><line x1="515" x2="525" y1="250" y2="250" stroke="#6B7280" stroke-width="1.5"/><polygon fill="#6B7280" points="521 245 533 250 521 255"/></svg>